<?xml version="1.0" encoding="UTF-8"?>
<svg id="Calque_1" xmlns="http://www.w3.org/2000/svg" version="1.1" viewBox="0 0 368.5 113.39">
  <!-- Generator: Adobe Illustrator 29.8.4, SVG Export Plug-In . SVG Version: 2.1.1 Build 6)  -->
  <defs>
    <style>
      .st0 {
        fill: #fff;
      }

      .st1 {
        fill: #5dbfbc;
      }

      .st2 {
        fill: #5cbebc;
      }
    </style>
  </defs>
  <g>
    <path class="st0" d="M152.36,56.12v17.88h-7.2v-17.7c0-4.26-3.12-6.18-6.6-6.18s-6.6,1.92-6.6,6.18v17.7h-7.2v-17.88c0-5.22,3.9-12.66,13.8-12.66s13.8,7.44,13.8,12.66Z"/>
    <path class="st0" d="M177.38,64.7h7.86c-1.98,6.06-7.32,9.84-14.58,9.84-9.3,0-15.54-6.24-15.54-15.54s6.24-15.42,15.54-15.42,15.48,6.18,15.48,15.42c0,.84-.06,1.62-.12,2.4h-23.46c.78,4.14,3.78,6.54,8.04,6.54,3,0,5.34-1.14,6.78-3.24ZM178.16,54.8c-1.26-2.94-3.96-4.62-7.56-4.62s-6.24,1.68-7.5,4.62h15.06Z"/>
    <path class="st0" d="M188.9,61.88v-17.88h7.2v17.7c0,4.2,3.12,6.18,6.6,6.18s6.6-1.98,6.6-6.18v-17.7h7.2v17.88c0,5.22-3.9,12.66-13.8,12.66s-13.8-7.44-13.8-12.66Z"/>
    <path class="st0" d="M234.08,43.46v6.6c-4.8,0-7.68,2.34-7.68,7.14v16.8h-7.2v-16.8c0-9.12,5.76-13.74,14.88-13.74Z"/>
    <path class="st0" d="M265.46,59.12v14.88h-7.2v-2.88c-1.44,1.86-4.5,3.42-8.88,3.42-8.7,0-14.94-6.24-14.94-15.54s6.24-15.42,15.48-15.42,15.54,6.24,15.54,15.54ZM249.98,50.18c-5.04,0-8.34,3.3-8.34,8.88s3.3,8.88,8.34,8.88,8.28-3.3,8.28-8.88-3.3-8.88-8.28-8.88Z"/>
    <path class="st0" d="M269.06,32h7.2v42h-7.2v-42Z"/>
    <path class="st0" d="M283.46,31.34c2.22,0,3.96,1.8,3.96,3.96,0,2.28-1.74,4.02-3.96,4.02s-3.96-1.74-3.96-4.02c0-2.16,1.74-3.96,3.96-3.96ZM279.86,44h7.2v30h-7.2v-30Z"/>
    <path class="st0" d="M313.76,64.94c0,6.12-4.86,9.42-11.7,9.42-6.36,0-10.44-2.88-12.3-4.56l3.84-5.64c2.52,2.4,5.7,3.6,8.64,3.6,2.46,0,4.32-.84,4.32-2.58,0-5.16-16.32-1.98-16.32-12.96,0-5.52,4.14-8.7,10.92-8.7,5.94,0,9.84,2.4,12.48,4.56l-3.84,5.58c-3.18-2.64-6.3-3.54-8.76-3.54s-3.6.78-3.6,1.98c0,4.38,16.32,1.62,16.32,12.84Z"/>
  </g>
  <g>
    <path class="st2" d="M125.88,87.38h-.86v-5.31h.86v5.31Z"/>
    <path class="st2" d="M129.25,87.38h-.87v-4.53h-1.3v-.78h3.48v.78h-1.3v4.53Z"/>
    <path class="st2" d="M132.8,86.49l-1.21,2.71-.58-.23,1-2.77.78.29Z"/>
    <path class="st2" d="M138.13,85.97l-.63,1.42h-.94l2.64-5.78,2.57,5.78h-.94l-.63-1.42h-2.08ZM139.18,83.46l-.75,1.73h1.49l-.74-1.73Z"/>
    <path class="st2" d="M143.75,87.38h-.86v-5.31h.86v5.31Z"/>
    <path class="st2" d="M149.47,85.97l-.63,1.42h-.94l2.64-5.78,2.57,5.78h-.94l-.63-1.42h-2.08ZM150.52,83.46l-.75,1.73h1.49l-.74-1.73Z"/>
    <path class="st2" d="M154.24,81.62l4.12,4.21v-3.77s.84,0,.84,0v5.76l-4.12-4.2v3.75s-.84,0-.84,0v-5.76Z"/>
    <path class="st2" d="M161.28,82.07h1.25c.88,0,1.49.18,2.02.62.62.49.95,1.21.95,2.03s-.34,1.54-.98,2.05c-.54.43-1.12.61-1.99.61h-1.25v-5.31ZM162.56,86.6c.62,0,1.04-.13,1.41-.43.42-.35.66-.86.66-1.44,0-1.15-.81-1.88-2.08-1.88h-.42v3.75h.42Z"/>
    <path class="st2" d="M170.09,82.07h1.25c.88,0,1.49.18,2.02.62.62.49.95,1.21.95,2.03s-.34,1.54-.98,2.05c-.54.43-1.12.61-1.99.61h-1.25v-5.31ZM171.37,86.6c.62,0,1.04-.13,1.41-.43.42-.35.66-.86.66-1.44,0-1.15-.81-1.88-2.08-1.88h-.42v3.75h.42Z"/>
    <path class="st2" d="M176.74,82.85v1.25h2.16v.78h-2.16v1.73h2.22v.78h-3.08v-5.31h3.08v.78h-2.22Z"/>
    <path class="st2" d="M182.14,85.67l1.41-3.6h.93l-2.35,5.88-2.34-5.88h.94l1.41,3.6Z"/>
    <path class="st2" d="M189.48,82.85v1.25h1.85v.78h-1.85v2.51h-.86v-5.31h2.75v.78h-1.89Z"/>
    <path class="st2" d="M198.1,84.73c0,1.55-1.29,2.79-2.88,2.79s-2.84-1.26-2.84-2.83,1.32-2.77,2.86-2.77,2.86,1.27,2.86,2.81ZM193.25,84.7c0,1.14.88,2.05,1.98,2.05s2-.9,2-2.01-.89-2.03-1.99-2.03-1.99.9-1.99,1.99Z"/>
    <path class="st2" d="M203.34,87.38h-1.05l-1.52-2.21h-.24v2.21h-.86v-5.31h1.2c.64,0,1.03.08,1.35.3.41.26.65.74.65,1.27,0,.73-.43,1.28-1.16,1.45l1.63,2.29ZM200.97,84.43c.68,0,1.04-.28,1.04-.8s-.34-.78-1.05-.78h-.43v1.58h.45Z"/>
    <path class="st2" d="M206.8,82.07h1l1.28,2.13,1.3-2.13h1l-1.87,3.05v2.27h-.87v-2.27l-1.85-3.05Z"/>
    <path class="st2" d="M217.43,84.73c0,1.55-1.29,2.79-2.88,2.79s-2.84-1.26-2.84-2.83,1.32-2.77,2.86-2.77,2.86,1.27,2.86,2.81ZM212.58,84.7c0,1.14.88,2.05,1.98,2.05s2-.9,2-2.01-.89-2.03-1.99-2.03-1.99.9-1.99,1.99Z"/>
    <path class="st2" d="M219.85,85.29c0,.53.04.74.16.95.18.29.62.5,1.03.5s.83-.22,1.01-.5c.12-.2.16-.42.16-.95v-3.23h.86v3.37c0,.59-.11.97-.37,1.32-.38.48-1,.77-1.65.77s-1.29-.29-1.67-.77c-.27-.35-.37-.73-.37-1.32v-3.37h.86v3.23Z"/>
    <path class="st2" d="M228.82,87.38h-1.05l-1.52-2.21h-.24v2.21h-.86v-5.31h1.2c.64,0,1.03.08,1.35.3.41.26.65.74.65,1.27,0,.73-.43,1.28-1.16,1.45l1.63,2.29ZM226.45,84.43c.68,0,1.04-.28,1.04-.8s-.34-.78-1.05-.78h-.43v1.58h.45Z"/>
    <path class="st2" d="M234.1,87.38h-.86v-5.31h1.3c.68,0,1.09.11,1.42.4.34.28.54.71.54,1.16,0,.96-.71,1.56-1.83,1.56h-.58v2.19ZM234.65,84.42c.65,0,1-.28,1-.79s-.34-.78-1.05-.78h-.51v1.57h.56Z"/>
    <path class="st2" d="M241.47,87.38h-1.05l-1.52-2.21h-.24v2.21h-.86v-5.31h1.2c.64,0,1.03.08,1.35.3.41.26.65.74.65,1.27,0,.73-.44,1.28-1.16,1.45l1.63,2.29ZM239.11,84.43c.68,0,1.04-.28,1.04-.8s-.34-.78-1.05-.78h-.43v1.58h.45Z"/>
    <path class="st2" d="M247.94,84.73c0,1.55-1.29,2.79-2.88,2.79s-2.84-1.26-2.84-2.83,1.31-2.77,2.86-2.77,2.86,1.27,2.86,2.81ZM243.09,84.7c0,1.14.88,2.05,1.98,2.05s2-.9,2-2.01-.89-2.03-1.99-2.03-1.99.9-1.99,1.99Z"/>
    <path class="st2" d="M253.57,83.66c-.65-.7-1.13-.96-1.76-.96-1.07,0-1.97.92-1.97,2.04s.89,2,1.98,2c.6,0,1.09-.26,1.75-.95v1.12c-.6.43-1.12.61-1.75.61-1.56,0-2.85-1.26-2.85-2.78s1.29-2.82,2.88-2.82c.62,0,1.12.19,1.71.62v1.12Z"/>
    <path class="st2" d="M256.08,82.85v1.25h2.16v.78h-2.16v1.73h2.22v.78h-3.08v-5.31h3.08v.78h-2.22Z"/>
    <path class="st2" d="M262.32,83.41l-.04-.07c-.3-.52-.47-.64-.87-.64-.43,0-.76.31-.76.72,0,.18.08.31.27.43q.18.11.9.41c.93.38,1.32.83,1.32,1.52,0,.97-.81,1.74-1.83,1.74-.95,0-1.58-.55-1.81-1.61l.83-.23c.12.73.43,1.06,1.01,1.06.52,0,.93-.41.93-.91,0-.28-.11-.47-.38-.61q-.19-.12-.93-.43c-.83-.35-1.18-.76-1.18-1.38,0-.84.71-1.49,1.64-1.49.7,0,1.18.31,1.58,1.03l-.69.46Z"/>
    <path class="st2" d="M267.17,83.41l-.04-.07c-.3-.52-.47-.64-.87-.64-.43,0-.76.31-.76.72,0,.18.08.31.27.43q.18.11.9.41c.93.38,1.32.83,1.32,1.52,0,.97-.81,1.74-1.84,1.74-.95,0-1.58-.55-1.81-1.61l.83-.23c.12.73.43,1.06,1.01,1.06.52,0,.93-.41.93-.91,0-.28-.11-.47-.38-.61q-.19-.12-.93-.43c-.83-.35-1.18-.76-1.18-1.38,0-.84.71-1.49,1.64-1.49.7,0,1.18.31,1.58,1.03l-.69.46Z"/>
    <path class="st2" d="M270.5,82.85v1.25h2.16v.78h-2.16v1.73h2.22v.78h-3.08v-5.31h3.08v.78h-2.22Z"/>
    <path class="st2" d="M276.73,83.41l-.04-.07c-.3-.52-.47-.64-.87-.64-.43,0-.76.31-.76.72,0,.18.08.31.27.43q.18.11.9.41c.93.38,1.32.83,1.32,1.52,0,.97-.81,1.74-1.83,1.74-.96,0-1.58-.55-1.81-1.61l.83-.23c.12.73.44,1.06,1.01,1.06.52,0,.93-.41.93-.91,0-.28-.11-.47-.38-.61q-.19-.12-.93-.43c-.83-.35-1.18-.76-1.18-1.38,0-.84.71-1.49,1.64-1.49.7,0,1.18.31,1.58,1.03l-.69.46Z"/>
  </g>
  <g>
    <path class="st1" d="M75.49,30.45c-.49.11-.96.81-1,1.3-.09,1.22,1.33,2.05,2.34,1.32,1.37-1,.45-3.02-1.34-2.62ZM88.76,30.45c-.49.11-.96.81-1,1.3-.12,1.61,2.17,2.21,2.82.78.59-1.28-.48-2.38-1.82-2.08ZM65.68,39.23c0-1.63-1.32-2.96-2.96-2.96s-2.96,1.32-2.96,2.96,1.32,2.96,2.96,2.96,2.96-1.32,2.96-2.96ZM78.94,39.23c0-1.63-1.32-2.96-2.96-2.96s-2.96,1.32-2.96,2.96,1.32,2.96,2.96,2.96,2.96-1.32,2.96-2.96ZM92.22,39.23c0-1.63-1.32-2.96-2.96-2.96s-2.96,1.32-2.96,2.96,1.32,2.96,2.96,2.96,2.96-1.32,2.96-2.96ZM105.49,39.23c0-1.63-1.32-2.96-2.96-2.96s-2.96,1.32-2.96,2.96,1.32,2.96,2.96,2.96,2.96-1.32,2.96-2.96ZM80.42,51.78c0-2.86-2.32-5.18-5.18-5.18s-5.18,2.32-5.18,5.18,2.32,5.18,5.18,5.18,5.18-2.32,5.18-5.18ZM95.17,51.78c0-2.86-2.32-5.18-5.18-5.18s-5.18,2.32-5.18,5.18,2.32,5.18,5.18,5.18,5.18-2.32,5.18-5.18ZM65.67,52.5c0-1.63-1.32-2.95-2.95-2.95s-2.95,1.32-2.95,2.95,1.32,2.95,2.95,2.95,2.95-1.32,2.95-2.95ZM105.48,52.5c0-1.63-1.32-2.95-2.95-2.95s-2.95,1.32-2.95,2.95,1.32,2.95,2.95,2.95,2.95-1.32,2.95-2.95ZM56.83,52.5c0-.82-.67-1.49-1.49-1.49s-1.49.67-1.49,1.49.67,1.49,1.49,1.49,1.49-.67,1.49-1.49ZM109.34,51.11c-.88.22-1.18,1.56-.62,2.28,1.05,1.34,3.02.34,2.56-1.45-.21-.8-1.23-1.01-1.94-.83ZM80.43,66.5c0-2.86-2.32-5.18-5.18-5.18s-5.18,2.32-5.18,5.18,2.32,5.18,5.18,5.18,5.18-2.32,5.18-5.18ZM95.17,66.5c0-2.86-2.32-5.18-5.18-5.18s-5.18,2.32-5.18,5.18,2.32,5.18,5.18,5.18,5.18-2.32,5.18-5.18ZM65.68,65.78c0-1.64-1.33-2.96-2.96-2.96s-2.96,1.33-2.96,2.96,1.33,2.96,2.96,2.96,2.96-1.33,2.96-2.96ZM105.49,65.78c0-1.64-1.33-2.96-2.96-2.96s-2.96,1.33-2.96,2.96,1.33,2.96,2.96,2.96,2.96-1.33,2.96-2.96ZM56.84,65.76c0-.83-.67-1.49-1.49-1.49s-1.49.67-1.49,1.49.67,1.49,1.49,1.49,1.49-.67,1.49-1.49ZM109.34,64.37c-1.18.3-1.24,2.47.1,2.83s2.22-.8,1.81-2.06c-.24-.75-1.24-.94-1.91-.77ZM65.68,79.05c0-1.63-1.33-2.96-2.96-2.96s-2.96,1.33-2.96,2.96,1.33,2.96,2.96,2.96,2.96-1.33,2.96-2.96ZM78.95,79.05c0-1.63-1.33-2.96-2.96-2.96s-2.96,1.33-2.96,2.96,1.33,2.96,2.96,2.96,2.96-1.33,2.96-2.96ZM92.21,79.05c0-1.63-1.33-2.96-2.96-2.96s-2.96,1.33-2.96,2.96,1.33,2.96,2.96,2.96,2.96-1.33,2.96-2.96ZM105.48,79.04c0-1.63-1.33-2.96-2.96-2.96s-2.96,1.33-2.96,2.96,1.33,2.96,2.96,2.96,2.96-1.33,2.96-2.96ZM77.48,86.41c0-.82-.67-1.49-1.49-1.49s-1.49.67-1.49,1.49.67,1.49,1.49,1.49,1.49-.67,1.49-1.49ZM90.75,86.41c0-.82-.67-1.49-1.49-1.49s-1.49.67-1.49,1.49.67,1.49,1.49,1.49,1.49-.67,1.49-1.49Z"/>
    <circle class="st0" cx="89.99" cy="66.5" r="5.18"/>
    <circle class="st1" cx="102.53" cy="65.78" r="2.96"/>
    <circle class="st1" cx="102.52" cy="79.04" r="2.96"/>
    <circle class="st0" cx="62.72" cy="79.05" r="2.96"/>
    <circle class="st0" cx="102.53" cy="39.23" r="2.96"/>
    <g>
      <circle class="st1" cx="62.72" cy="39.23" r="2.96"/>
      <circle class="st1" cx="62.72" cy="52.5" r="2.95"/>
    </g>
    <g>
      <circle class="st1" cx="89.99" cy="51.78" r="5.18"/>
      <g>
        <circle class="st1" cx="89.26" cy="39.23" r="2.96"/>
        <path class="st1" d="M88.76,30.45c1.35-.3,2.41.8,1.82,2.08-.66,1.43-2.94.83-2.82-.78.04-.49.5-1.19,1-1.3Z"/>
      </g>
    </g>
    <g>
      <circle class="st1" cx="75.25" cy="66.5" r="5.18"/>
      <circle class="st1" cx="62.72" cy="65.78" r="2.96"/>
      <circle class="st1" cx="55.34" cy="65.76" r="1.49"/>
    </g>
    <g>
      <circle class="st1" cx="75.99" cy="39.23" r="2.96"/>
      <path class="st1" d="M75.49,30.45c1.79-.4,2.71,1.62,1.34,2.62-1.01.74-2.43-.1-2.34-1.32.04-.49.5-1.19,1-1.3Z"/>
    </g>
    <path class="st1" d="M109.34,64.37c.68-.17,1.67.02,1.91.77.41,1.26-.48,2.42-1.81,2.06s-1.29-2.53-.1-2.83Z"/>
    <g>
      <circle class="st1" cx="75.99" cy="79.05" r="2.96"/>
      <circle class="st1" cx="75.99" cy="86.41" r="1.49"/>
    </g>
    <g>
      <circle class="st1" cx="102.52" cy="52.5" r="2.95"/>
      <path class="st1" d="M109.34,51.11c.7-.18,1.73.03,1.94.83.47,1.79-1.51,2.79-2.56,1.45-.56-.72-.26-2.05.62-2.28Z"/>
    </g>
    <g>
      <circle class="st1" cx="89.25" cy="79.05" r="2.96"/>
      <circle class="st1" cx="89.26" cy="86.41" r="1.49"/>
    </g>
    <circle class="st0" cx="75.24" cy="51.78" r="5.18"/>
  </g>
</svg>