<?xml version="1.0" encoding="UTF-8"?>
<svg id="Calque_1" xmlns="http://www.w3.org/2000/svg" version="1.1" viewBox="0 0 283.46 170.08">
  <!-- Generator: Adobe Illustrator 29.8.4, SVG Export Plug-In . SVG Version: 2.1.1 Build 6)  -->
  <defs>
    <style>
      .st0 {
        fill: #1d1d1b;
      }

      .st1 {
        fill: #1d1e1b;
      }

      .st2 {
        fill: #5dbfbc;
      }

      .st3 {
        fill: #5cbebc;
      }
    </style>
  </defs>
  <g>
    <path class="st0" d="M76.39,111.2v17.58h-7.08v-17.41c0-4.19-3.07-6.08-6.49-6.08s-6.49,1.89-6.49,6.08v17.41h-7.08v-17.58c0-5.13,3.83-12.45,13.57-12.45s13.57,7.32,13.57,12.45Z"/>
    <path class="st0" d="M101,119.64h7.73c-1.95,5.96-7.2,9.68-14.34,9.68-9.15,0-15.28-6.14-15.28-15.28s6.14-15.16,15.28-15.16,15.22,6.08,15.22,15.16c0,.83-.06,1.59-.12,2.36h-23.07c.77,4.07,3.72,6.43,7.91,6.43,2.95,0,5.25-1.12,6.67-3.19ZM101.76,109.91c-1.24-2.89-3.89-4.54-7.43-4.54s-6.14,1.65-7.38,4.54h14.81Z"/>
    <path class="st0" d="M112.32,116.87v-17.58h7.08v17.41c0,4.13,3.07,6.08,6.49,6.08s6.49-1.95,6.49-6.08v-17.41h7.08v17.58c0,5.13-3.84,12.45-13.57,12.45s-13.57-7.32-13.57-12.45Z"/>
    <path class="st0" d="M156.75,98.75v6.49c-4.72,0-7.55,2.3-7.55,7.02v16.52h-7.08v-16.52c0-8.97,5.66-13.51,14.63-13.51Z"/>
    <path class="st0" d="M187.61,114.16v14.63h-7.08v-2.83c-1.42,1.83-4.43,3.36-8.73,3.36-8.56,0-14.69-6.14-14.69-15.28s6.14-15.16,15.22-15.16,15.28,6.14,15.28,15.28ZM172.38,105.36c-4.96,0-8.2,3.25-8.2,8.73s3.25,8.73,8.2,8.73,8.14-3.25,8.14-8.73-3.25-8.73-8.14-8.73Z"/>
    <path class="st0" d="M191.15,87.48h7.08v41.3h-7.08v-41.3Z"/>
    <path class="st0" d="M205.3,86.84c2.18,0,3.89,1.77,3.89,3.89,0,2.24-1.71,3.95-3.89,3.95s-3.89-1.71-3.89-3.95c0-2.12,1.71-3.89,3.89-3.89ZM201.76,99.29h7.08v29.5h-7.08v-29.5Z"/>
    <path class="st0" d="M235.1,119.88c0,6.02-4.78,9.26-11.51,9.26-6.25,0-10.27-2.83-12.1-4.48l3.78-5.55c2.48,2.36,5.61,3.54,8.5,3.54,2.42,0,4.25-.83,4.25-2.54,0-5.08-16.05-1.95-16.05-12.75,0-5.43,4.07-8.56,10.74-8.56,5.84,0,9.68,2.36,12.27,4.48l-3.78,5.49c-3.13-2.6-6.2-3.48-8.61-3.48s-3.54.77-3.54,1.95c0,4.31,16.05,1.59,16.05,12.63Z"/>
  </g>
  <g>
    <path class="st3" d="M66.31,142.17h-.86v-5.31h.86v5.31Z"/>
    <path class="st3" d="M69.69,142.17h-.87v-4.53h-1.3v-.78h3.48v.78h-1.3v4.53Z"/>
    <path class="st3" d="M73.24,141.28l-1.21,2.71-.58-.23,1-2.77.79.29Z"/>
    <path class="st3" d="M78.57,140.75l-.63,1.42h-.94l2.64-5.78,2.57,5.78h-.94l-.63-1.42h-2.08ZM79.62,138.25l-.75,1.73h1.49l-.74-1.73Z"/>
    <path class="st3" d="M84.19,142.17h-.86v-5.31h.86v5.31Z"/>
    <path class="st3" d="M89.91,140.75l-.63,1.42h-.94l2.64-5.78,2.57,5.78h-.94l-.63-1.42h-2.08ZM90.96,138.25l-.75,1.73h1.49l-.74-1.73Z"/>
    <path class="st3" d="M94.67,136.41l4.12,4.21v-3.77s.84,0,.84,0v5.76l-4.12-4.2v3.75s-.84,0-.84,0v-5.76Z"/>
    <path class="st3" d="M101.72,136.85h1.25c.88,0,1.49.18,2.02.62.62.49.95,1.21.95,2.03s-.34,1.54-.98,2.05c-.54.43-1.12.61-1.99.61h-1.25v-5.31ZM103,141.39c.62,0,1.04-.13,1.41-.43.42-.35.66-.86.66-1.44,0-1.15-.81-1.88-2.08-1.88h-.42v3.75h.42Z"/>
    <path class="st3" d="M110.52,136.85h1.25c.88,0,1.49.18,2.02.62.62.49.95,1.21.95,2.03s-.34,1.54-.98,2.05c-.54.43-1.12.61-1.99.61h-1.25v-5.31ZM111.8,141.39c.62,0,1.04-.13,1.41-.43.42-.35.66-.86.66-1.44,0-1.15-.81-1.88-2.08-1.88h-.42v3.75h.42Z"/>
    <path class="st3" d="M117.17,137.63v1.25h2.16v.78h-2.16v1.73h2.22v.78h-3.08v-5.31h3.08v.78h-2.22Z"/>
    <path class="st3" d="M122.58,140.45l1.41-3.6h.93l-2.35,5.88-2.34-5.88h.94l1.41,3.6Z"/>
    <path class="st3" d="M129.91,137.63v1.25h1.85v.78h-1.85v2.51h-.86v-5.31h2.75v.78h-1.89Z"/>
    <path class="st3" d="M138.54,139.52c0,1.55-1.29,2.79-2.88,2.79s-2.84-1.26-2.84-2.83,1.32-2.77,2.86-2.77,2.86,1.27,2.86,2.81ZM133.69,139.48c0,1.14.88,2.05,1.98,2.05s2-.9,2-2.01-.89-2.03-1.99-2.03-1.99.9-1.99,1.99Z"/>
    <path class="st3" d="M143.77,142.17h-1.05l-1.52-2.21h-.24v2.21h-.86v-5.31h1.2c.64,0,1.03.08,1.35.3.41.26.65.74.65,1.27,0,.73-.43,1.28-1.16,1.45l1.63,2.29ZM141.41,139.22c.68,0,1.04-.28,1.04-.8s-.34-.78-1.05-.78h-.43v1.58h.45Z"/>
    <path class="st3" d="M147.23,136.85h1l1.28,2.13,1.3-2.13h1l-1.87,3.05v2.27h-.87v-2.27l-1.85-3.05Z"/>
    <path class="st3" d="M157.87,139.52c0,1.55-1.29,2.79-2.88,2.79s-2.84-1.26-2.84-2.83,1.32-2.77,2.86-2.77,2.86,1.27,2.86,2.81ZM153.01,139.48c0,1.14.88,2.05,1.98,2.05s2-.9,2-2.01-.89-2.03-1.99-2.03-1.99.9-1.99,1.99Z"/>
    <path class="st3" d="M160.29,140.08c0,.53.04.74.16.95.18.29.62.5,1.03.5s.83-.22,1.01-.5c.12-.2.16-.42.16-.95v-3.23h.86v3.37c0,.59-.11.97-.37,1.32-.37.48-1,.77-1.65.77s-1.29-.29-1.67-.77c-.27-.35-.37-.73-.37-1.32v-3.37h.86v3.23Z"/>
    <path class="st3" d="M169.25,142.17h-1.05l-1.52-2.21h-.24v2.21h-.86v-5.31h1.2c.64,0,1.03.08,1.35.3.41.26.65.74.65,1.27,0,.73-.43,1.28-1.16,1.45l1.63,2.29ZM166.89,139.22c.68,0,1.04-.28,1.04-.8s-.34-.78-1.05-.78h-.43v1.58h.45Z"/>
    <path class="st3" d="M174.53,142.17h-.86v-5.31h1.3c.68,0,1.09.11,1.42.4.34.28.54.71.54,1.16,0,.96-.71,1.56-1.83,1.56h-.58v2.2ZM175.09,139.2c.65,0,1-.28,1-.79s-.34-.78-1.05-.78h-.51v1.57h.55Z"/>
    <path class="st3" d="M181.91,142.17h-1.05l-1.52-2.21h-.24v2.21h-.86v-5.31h1.19c.64,0,1.03.08,1.35.3.41.26.65.74.65,1.27,0,.73-.43,1.28-1.16,1.45l1.63,2.29ZM179.54,139.22c.68,0,1.04-.28,1.04-.8s-.34-.78-1.05-.78h-.43v1.58h.45Z"/>
    <path class="st3" d="M188.37,139.52c0,1.55-1.29,2.79-2.88,2.79s-2.84-1.26-2.84-2.83,1.32-2.77,2.86-2.77,2.86,1.27,2.86,2.81ZM183.52,139.48c0,1.14.88,2.05,1.98,2.05s2-.9,2-2.01-.89-2.03-1.99-2.03-1.99.9-1.99,1.99Z"/>
    <path class="st3" d="M194.01,138.45c-.65-.7-1.13-.96-1.76-.96-1.07,0-1.97.92-1.97,2.04s.89,2,1.98,2c.6,0,1.09-.26,1.75-.95v1.12c-.6.43-1.12.61-1.75.61-1.56,0-2.85-1.26-2.85-2.78s1.29-2.82,2.88-2.82c.62,0,1.12.19,1.71.62v1.12Z"/>
    <path class="st3" d="M196.51,137.63v1.25h2.16v.78h-2.16v1.73h2.22v.78h-3.08v-5.31h3.08v.78h-2.22Z"/>
    <path class="st3" d="M202.75,138.2l-.04-.07c-.3-.52-.47-.64-.87-.64-.43,0-.76.31-.76.72,0,.18.08.31.27.43q.18.11.91.41c.93.38,1.32.83,1.32,1.52,0,.97-.81,1.74-1.83,1.74-.95,0-1.58-.55-1.81-1.61l.83-.23c.12.73.43,1.06,1.01,1.06.52,0,.93-.41.93-.91,0-.28-.11-.47-.37-.61q-.19-.12-.93-.43c-.83-.35-1.18-.76-1.18-1.38,0-.84.71-1.49,1.64-1.49.7,0,1.18.31,1.58,1.03l-.69.46Z"/>
    <path class="st3" d="M207.6,138.2l-.04-.07c-.3-.52-.47-.64-.87-.64-.44,0-.76.31-.76.72,0,.18.08.31.27.43q.18.11.91.41c.93.38,1.32.83,1.32,1.52,0,.97-.81,1.74-1.83,1.74-.95,0-1.58-.55-1.81-1.61l.83-.23c.12.73.43,1.06,1.01,1.06.52,0,.93-.41.93-.91,0-.28-.11-.47-.37-.61q-.19-.12-.93-.43c-.83-.35-1.18-.76-1.18-1.38,0-.84.71-1.49,1.64-1.49.7,0,1.18.31,1.58,1.03l-.69.46Z"/>
    <path class="st3" d="M210.93,137.63v1.25h2.16v.78h-2.16v1.73h2.22v.78h-3.08v-5.31h3.08v.78h-2.22Z"/>
    <path class="st3" d="M217.17,138.2l-.04-.07c-.3-.52-.47-.64-.87-.64-.43,0-.76.31-.76.72,0,.18.08.31.27.43q.18.11.91.41c.93.38,1.32.83,1.32,1.52,0,.97-.81,1.74-1.83,1.74-.95,0-1.58-.55-1.81-1.61l.83-.23c.12.73.43,1.06,1.01,1.06.52,0,.93-.41.93-.91,0-.28-.11-.47-.38-.61q-.19-.12-.93-.43c-.83-.35-1.18-.76-1.18-1.38,0-.84.71-1.49,1.64-1.49.7,0,1.18.31,1.58,1.03l-.69.46Z"/>
  </g>
  <g>
    <path class="st2" d="M134.63,24.96c-.49.11-.96.81-1,1.3-.09,1.22,1.33,2.05,2.34,1.32,1.37-1,.45-3.02-1.34-2.62ZM147.89,24.96c-.49.11-.96.81-1,1.3-.12,1.61,2.17,2.21,2.82.78.59-1.28-.48-2.38-1.82-2.08ZM124.81,33.74c0-1.63-1.32-2.96-2.96-2.96s-2.96,1.32-2.96,2.96,1.32,2.96,2.96,2.96,2.96-1.32,2.96-2.96ZM138.08,33.74c0-1.63-1.32-2.96-2.96-2.96s-2.96,1.32-2.96,2.96,1.32,2.96,2.96,2.96,2.96-1.32,2.96-2.96ZM151.35,33.75c0-1.63-1.32-2.96-2.96-2.96s-2.96,1.32-2.96,2.96,1.32,2.96,2.96,2.96,2.96-1.32,2.96-2.96ZM164.62,33.75c0-1.63-1.32-2.96-2.96-2.96s-2.96,1.32-2.96,2.96,1.32,2.96,2.96,2.96,2.96-1.32,2.96-2.96ZM139.55,46.29c0-2.86-2.32-5.18-5.18-5.18s-5.18,2.32-5.18,5.18,2.32,5.18,5.18,5.18,5.18-2.32,5.18-5.18ZM154.3,46.29c0-2.86-2.32-5.18-5.18-5.18s-5.18,2.32-5.18,5.18,2.32,5.18,5.18,5.18,5.18-2.32,5.18-5.18ZM124.8,47.02c0-1.63-1.32-2.95-2.95-2.95s-2.95,1.32-2.95,2.95,1.32,2.95,2.95,2.95,2.95-1.32,2.95-2.95ZM164.61,47.02c0-1.63-1.32-2.95-2.95-2.95s-2.95,1.32-2.95,2.95,1.32,2.95,2.95,2.95,2.95-1.32,2.95-2.95ZM115.97,47.01c0-.82-.67-1.49-1.49-1.49s-1.49.67-1.49,1.49.67,1.49,1.49,1.49,1.49-.67,1.49-1.49ZM168.47,45.63c-.88.22-1.18,1.56-.62,2.28,1.05,1.34,3.02.34,2.56-1.45-.21-.8-1.23-1.01-1.94-.83ZM139.56,61.02c0-2.86-2.32-5.18-5.18-5.18s-5.18,2.32-5.18,5.18,2.32,5.18,5.18,5.18,5.18-2.32,5.18-5.18ZM154.31,61.02c0-2.86-2.32-5.18-5.18-5.18s-5.18,2.32-5.18,5.18,2.32,5.18,5.18,5.18,5.18-2.32,5.18-5.18ZM124.81,60.3c0-1.64-1.33-2.96-2.96-2.96s-2.96,1.33-2.96,2.96,1.33,2.96,2.96,2.96,2.96-1.33,2.96-2.96ZM164.62,60.3c0-1.64-1.33-2.96-2.96-2.96s-2.96,1.33-2.96,2.96,1.33,2.96,2.96,2.96,2.96-1.33,2.96-2.96ZM115.97,60.28c0-.83-.67-1.49-1.49-1.49s-1.49.67-1.49,1.49.67,1.49,1.49,1.49,1.49-.67,1.49-1.49ZM168.47,58.89c-1.18.3-1.24,2.47.1,2.83s2.22-.8,1.81-2.06c-.24-.75-1.24-.94-1.91-.77ZM124.81,73.56c0-1.63-1.33-2.96-2.96-2.96s-2.96,1.33-2.96,2.96,1.33,2.96,2.96,2.96,2.96-1.33,2.96-2.96ZM138.08,73.56c0-1.63-1.33-2.96-2.96-2.96s-2.96,1.33-2.96,2.96,1.33,2.96,2.96,2.96,2.96-1.33,2.96-2.96ZM151.35,73.56c0-1.63-1.33-2.96-2.96-2.96s-2.96,1.33-2.96,2.96,1.33,2.96,2.96,2.96,2.96-1.33,2.96-2.96ZM164.62,73.56c0-1.63-1.33-2.96-2.96-2.96s-2.96,1.33-2.96,2.96,1.33,2.96,2.96,2.96,2.96-1.33,2.96-2.96ZM136.62,80.93c0-.82-.67-1.49-1.49-1.49s-1.49.67-1.49,1.49.67,1.49,1.49,1.49,1.49-.67,1.49-1.49ZM149.88,80.93c0-.82-.67-1.49-1.49-1.49s-1.49.67-1.49,1.49.67,1.49,1.49,1.49,1.49-.67,1.49-1.49Z"/>
    <circle class="st1" cx="149.13" cy="61.02" r="5.18"/>
    <circle class="st2" cx="161.66" cy="60.3" r="2.96"/>
    <circle class="st2" cx="161.66" cy="73.56" r="2.96"/>
    <circle class="st1" cx="121.85" cy="73.56" r="2.96"/>
    <circle class="st1" cx="161.66" cy="33.75" r="2.96"/>
    <g>
      <circle class="st2" cx="121.85" cy="33.74" r="2.96"/>
      <circle class="st2" cx="121.85" cy="47.02" r="2.95"/>
    </g>
    <g>
      <circle class="st2" cx="149.13" cy="46.29" r="5.18"/>
      <g>
        <circle class="st2" cx="148.39" cy="33.75" r="2.96"/>
        <path class="st2" d="M147.89,24.96c1.35-.3,2.41.8,1.82,2.08-.66,1.43-2.94.83-2.82-.78.04-.49.5-1.19,1-1.3Z"/>
      </g>
    </g>
    <g>
      <circle class="st2" cx="134.38" cy="61.02" r="5.18"/>
      <circle class="st2" cx="121.85" cy="60.3" r="2.96"/>
      <circle class="st2" cx="114.48" cy="60.28" r="1.49"/>
    </g>
    <g>
      <circle class="st2" cx="135.12" cy="33.74" r="2.96"/>
      <path class="st2" d="M134.63,24.96c1.79-.4,2.71,1.62,1.34,2.62-1.01.74-2.43-.1-2.34-1.32.04-.49.5-1.19,1-1.3Z"/>
    </g>
    <path class="st2" d="M168.47,58.89c.68-.17,1.67.02,1.91.77.41,1.26-.48,2.42-1.81,2.06s-1.29-2.53-.1-2.83Z"/>
    <g>
      <circle class="st2" cx="135.12" cy="73.56" r="2.96"/>
      <circle class="st2" cx="135.12" cy="80.93" r="1.49"/>
    </g>
    <g>
      <circle class="st2" cx="161.66" cy="47.02" r="2.95"/>
      <path class="st2" d="M168.47,45.63c.7-.18,1.73.03,1.94.83.47,1.79-1.51,2.79-2.56,1.45-.56-.72-.26-2.05.62-2.28Z"/>
    </g>
    <g>
      <circle class="st2" cx="148.39" cy="73.56" r="2.96"/>
      <circle class="st2" cx="148.39" cy="80.93" r="1.49"/>
    </g>
    <g>
      <circle class="st1" cx="134.38" cy="46.29" r="5.18"/>
      <circle class="st2" cx="114.48" cy="47.01" r="1.49"/>
    </g>
  </g>
</svg>