<svg width="284" height="171" viewBox="0 0 284 171" fill="none" xmlns="http://www.w3.org/2000/svg">
<path d="M76.39 111.2V128.78H69.31V111.37C69.31 107.18 66.24 105.29 62.82 105.29C59.4 105.29 56.33 107.18 56.33 111.37V128.78H49.25V111.2C49.25 106.07 53.09 98.75 62.82 98.75C72.55 98.75 76.39 106.07 76.39 111.2Z" fill="white"/>
<path d="M101 119.64H108.73C106.78 125.6 101.53 129.32 94.39 129.32C85.24 129.32 79.11 123.18 79.11 114.04C79.11 104.9 85.25 98.88 94.39 98.88C103.53 98.88 109.61 104.96 109.61 114.04C109.61 114.87 109.55 115.63 109.49 116.4H86.42C87.19 120.47 90.14 122.83 94.33 122.83C97.28 122.83 99.58 121.71 101 119.64ZM101.76 109.91C100.52 107.02 97.87 105.37 94.33 105.37C90.79 105.37 88.19 107.02 86.95 109.91H101.76Z" fill="white"/>
<path d="M112.32 116.87V99.29H119.4V116.7C119.4 120.83 122.47 122.78 125.89 122.78C129.31 122.78 132.38 120.83 132.38 116.7V99.29H139.46V116.87C139.46 122 135.62 129.32 125.89 129.32C116.16 129.32 112.32 122 112.32 116.87Z" fill="white"/>
<path d="M156.75 98.75V105.24C152.03 105.24 149.2 107.54 149.2 112.26V128.78H142.12V112.26C142.12 103.29 147.78 98.75 156.75 98.75Z" fill="white"/>
<path d="M187.61 114.16V128.79H180.53V125.96C179.11 127.79 176.1 129.32 171.8 129.32C163.24 129.32 157.11 123.18 157.11 114.04C157.11 104.9 163.25 98.88 172.33 98.88C181.41 98.88 187.61 105.02 187.61 114.16ZM172.38 105.36C167.42 105.36 164.18 108.61 164.18 114.09C164.18 119.57 167.43 122.82 172.38 122.82C177.33 122.82 180.52 119.57 180.52 114.09C180.52 108.61 177.27 105.36 172.38 105.36Z" fill="white"/>
<path d="M191.15 87.48H198.23V128.78H191.15V87.48Z" fill="white"/>
<path d="M205.3 86.84C207.48 86.84 209.19 88.61 209.19 90.73C209.19 92.97 207.48 94.68 205.3 94.68C203.12 94.68 201.41 92.97 201.41 90.73C201.41 88.61 203.12 86.84 205.3 86.84ZM201.76 99.29H208.84V128.79H201.76V99.29Z" fill="white"/>
<path d="M235.1 119.88C235.1 125.9 230.32 129.14 223.59 129.14C217.34 129.14 213.32 126.31 211.49 124.66L215.27 119.11C217.75 121.47 220.88 122.65 223.77 122.65C226.19 122.65 228.02 121.82 228.02 120.11C228.02 115.03 211.97 118.16 211.97 107.36C211.97 101.93 216.04 98.8 222.71 98.8C228.55 98.8 232.39 101.16 234.98 103.28L231.2 108.77C228.07 106.17 225 105.29 222.59 105.29C220.18 105.29 219.05 106.06 219.05 107.24C219.05 111.55 235.1 108.83 235.1 119.87V119.88Z" fill="white"/>
<path d="M74.06 140.75L73.43 142.17H72.49L75.13 136.39L77.7 142.17H76.76L76.13 140.75H74.05H74.06ZM75.11 138.25L74.36 139.98H75.84L75.1 138.25H75.11Z" fill="#5CBEBC"/>
<path d="M79.68 142.17H78.82V136.86H79.68V142.17Z" fill="#5CBEBC"/>
<path d="M85.4 140.75L84.77 142.17H83.83L86.47 136.39L89.04 142.17H88.1L87.47 140.75H85.39H85.4ZM86.45 138.25L85.7 139.98H87.18L86.44 138.25H86.45Z" fill="#5CBEBC"/>
<path d="M90.16 136.41L94.28 140.62V136.85H95.12V142.61L91 138.41V142.16H90.16V136.4V136.41Z" fill="#5CBEBC"/>
<path d="M97.21 136.85H98.46C99.34 136.85 99.94 137.03 100.48 137.47C101.1 137.96 101.43 138.68 101.43 139.5C101.43 140.32 101.09 141.04 100.45 141.55C99.91 141.98 99.33 142.16 98.46 142.16H97.21V136.85ZM98.49 141.39C99.11 141.39 99.53 141.26 99.9 140.96C100.32 140.61 100.56 140.1 100.56 139.52C100.56 138.37 99.75 137.64 98.48 137.64H98.06V141.39H98.48H98.49Z" fill="#5CBEBC"/>
<path d="M106.01 136.85H107.26C108.14 136.85 108.74 137.03 109.28 137.47C109.9 137.96 110.23 138.68 110.23 139.5C110.23 140.32 109.89 141.04 109.25 141.55C108.71 141.98 108.13 142.16 107.26 142.16H106.01V136.85ZM107.29 141.39C107.91 141.39 108.33 141.26 108.7 140.96C109.12 140.61 109.36 140.1 109.36 139.52C109.36 138.37 108.55 137.64 107.28 137.64H106.86V141.39H107.28H107.29Z" fill="#5CBEBC"/>
<path d="M112.66 137.63V138.88H114.82V139.66H112.66V141.39H114.88V142.17H111.8V136.86H114.88V137.64H112.66V137.63Z" fill="#5CBEBC"/>
<path d="M118.07 140.45L119.48 136.85H120.41L118.06 142.73L115.72 136.85H116.66L118.07 140.45Z" fill="#5CBEBC"/>
<path d="M125.4 137.63V138.88H127.25V139.66H125.4V142.17H124.54V136.86H127.29V137.64H125.4V137.63Z" fill="#5CBEBC"/>
<path d="M134.03 139.52C134.03 141.07 132.74 142.31 131.15 142.31C129.56 142.31 128.31 141.05 128.31 139.48C128.31 137.91 129.63 136.71 131.17 136.71C132.71 136.71 134.03 137.98 134.03 139.52ZM129.18 139.48C129.18 140.62 130.06 141.53 131.16 141.53C132.26 141.53 133.16 140.63 133.16 139.52C133.16 138.41 132.27 137.49 131.17 137.49C130.07 137.49 129.18 138.39 129.18 139.48Z" fill="#5CBEBC"/>
<path d="M139.26 142.17H138.21L136.69 139.96H136.45V142.17H135.59V136.86H136.78C137.42 136.86 137.81 136.94 138.13 137.16C138.54 137.42 138.78 137.9 138.78 138.43C138.78 139.16 138.35 139.71 137.62 139.88L139.25 142.17H139.26ZM136.9 139.22C137.58 139.22 137.94 138.94 137.94 138.42C137.94 137.9 137.6 137.64 136.89 137.64H136.46V139.22H136.91H136.9Z" fill="#5CBEBC"/>
<path d="M142.72 136.85H143.72L145 138.98L146.3 136.85H147.3L145.43 139.9V142.17H144.56V139.9L142.71 136.85H142.72Z" fill="#5CBEBC"/>
<path d="M153.36 139.52C153.36 141.07 152.07 142.31 150.48 142.31C148.89 142.31 147.64 141.05 147.64 139.48C147.64 137.91 148.96 136.71 150.5 136.71C152.04 136.71 153.36 137.98 153.36 139.52ZM148.5 139.48C148.5 140.62 149.38 141.53 150.48 141.53C151.58 141.53 152.48 140.63 152.48 139.52C152.48 138.41 151.59 137.49 150.49 137.49C149.39 137.49 148.5 138.39 148.5 139.48Z" fill="#5CBEBC"/>
<path d="M155.78 140.08C155.78 140.61 155.82 140.82 155.94 141.03C156.12 141.32 156.56 141.53 156.97 141.53C157.38 141.53 157.8 141.31 157.98 141.03C158.1 140.83 158.14 140.61 158.14 140.08V136.85H159V140.22C159 140.81 158.89 141.19 158.62 141.54C158.25 142.02 157.62 142.31 156.97 142.31C156.32 142.31 155.68 142.02 155.3 141.54C155.03 141.19 154.93 140.81 154.93 140.22V136.85H155.79V140.08H155.78Z" fill="#5CBEBC"/>
<path d="M164.74 142.17H163.69L162.17 139.96H161.93V142.17H161.07V136.86H162.27C162.91 136.86 163.3 136.94 163.62 137.16C164.03 137.42 164.27 137.9 164.27 138.43C164.27 139.16 163.84 139.71 163.11 139.88L164.74 142.17ZM162.38 139.22C163.06 139.22 163.42 138.94 163.42 138.42C163.42 137.9 163.08 137.64 162.37 137.64H161.94V139.22H162.39H162.38Z" fill="#5CBEBC"/>
<path d="M170.03 142.17H169.17V136.86H170.47C171.15 136.86 171.56 136.97 171.89 137.26C172.23 137.54 172.43 137.97 172.43 138.42C172.43 139.38 171.72 139.98 170.6 139.98H170.02V142.18L170.03 142.17ZM170.58 139.2C171.23 139.2 171.58 138.92 171.58 138.41C171.58 137.9 171.24 137.63 170.53 137.63H170.02V139.2H170.57H170.58Z" fill="#5CBEBC"/>
<path d="M177.4 142.17H176.35L174.83 139.96H174.59V142.17H173.73V136.86H174.92C175.56 136.86 175.95 136.94 176.27 137.16C176.68 137.42 176.92 137.9 176.92 138.43C176.92 139.16 176.49 139.71 175.76 139.88L177.39 142.17H177.4ZM175.03 139.22C175.71 139.22 176.07 138.94 176.07 138.42C176.07 137.9 175.73 137.64 175.02 137.64H174.59V139.22H175.04H175.03Z" fill="#5CBEBC"/>
<path d="M183.86 139.52C183.86 141.07 182.57 142.31 180.98 142.31C179.39 142.31 178.14 141.05 178.14 139.48C178.14 137.91 179.46 136.71 181 136.71C182.54 136.71 183.86 137.98 183.86 139.52ZM179.01 139.48C179.01 140.62 179.89 141.53 180.99 141.53C182.09 141.53 182.99 140.63 182.99 139.52C182.99 138.41 182.1 137.49 181 137.49C179.9 137.49 179.01 138.39 179.01 139.48Z" fill="#5CBEBC"/>
<path d="M189.5 138.45C188.85 137.75 188.37 137.49 187.74 137.49C186.67 137.49 185.77 138.41 185.77 139.53C185.77 140.65 186.66 141.53 187.75 141.53C188.35 141.53 188.84 141.27 189.5 140.58V141.7C188.9 142.13 188.38 142.31 187.75 142.31C186.19 142.31 184.9 141.05 184.9 139.53C184.9 138.01 186.19 136.71 187.78 136.71C188.4 136.71 188.9 136.9 189.49 137.33V138.45H189.5Z" fill="#5CBEBC"/>
<path d="M192 137.63V138.88H194.16V139.66H192V141.39H194.22V142.17H191.14V136.86H194.22V137.64H192V137.63Z" fill="#5CBEBC"/>
<path d="M198.24 138.2L198.2 138.13C197.9 137.61 197.73 137.49 197.33 137.49C196.9 137.49 196.57 137.8 196.57 138.21C196.57 138.39 196.65 138.52 196.84 138.64C196.96 138.713 197.263 138.85 197.75 139.05C198.68 139.43 199.07 139.88 199.07 140.57C199.07 141.54 198.26 142.31 197.24 142.31C196.29 142.31 195.66 141.76 195.43 140.7L196.26 140.47C196.38 141.2 196.69 141.53 197.27 141.53C197.79 141.53 198.2 141.12 198.2 140.62C198.2 140.34 198.09 140.15 197.83 140.01C197.703 139.93 197.393 139.787 196.9 139.58C196.07 139.23 195.72 138.82 195.72 138.2C195.72 137.36 196.43 136.71 197.36 136.71C198.06 136.71 198.54 137.02 198.94 137.74L198.25 138.2H198.24Z" fill="#5CBEBC"/>
<path d="M203.09 138.2L203.05 138.13C202.75 137.61 202.58 137.49 202.18 137.49C201.75 137.49 201.42 137.8 201.42 138.21C201.42 138.39 201.5 138.52 201.69 138.64C201.81 138.713 202.113 138.85 202.6 139.05C203.53 139.43 203.92 139.88 203.92 140.57C203.92 141.54 203.11 142.31 202.09 142.31C201.14 142.31 200.51 141.76 200.28 140.7L201.11 140.47C201.23 141.2 201.54 141.53 202.12 141.53C202.64 141.53 203.05 141.12 203.05 140.62C203.05 140.34 202.94 140.15 202.68 140.01C202.553 139.93 202.243 139.787 201.75 139.58C200.92 139.23 200.57 138.82 200.57 138.2C200.57 137.36 201.28 136.71 202.21 136.71C202.91 136.71 203.39 137.02 203.79 137.74L203.1 138.2H203.09Z" fill="#5CBEBC"/>
<path d="M206.42 137.63V138.88H208.58V139.66H206.42V141.39H208.64V142.17H205.56V136.86H208.64V137.64H206.42V137.63Z" fill="#5CBEBC"/>
<path d="M212.66 138.2L212.62 138.13C212.32 137.61 212.15 137.49 211.75 137.49C211.32 137.49 210.99 137.8 210.99 138.21C210.99 138.39 211.07 138.52 211.26 138.64C211.38 138.713 211.683 138.85 212.17 139.05C213.1 139.43 213.49 139.88 213.49 140.57C213.49 141.54 212.68 142.31 211.66 142.31C210.71 142.31 210.08 141.76 209.85 140.7L210.68 140.47C210.8 141.2 211.11 141.53 211.69 141.53C212.21 141.53 212.62 141.12 212.62 140.62C212.62 140.34 212.51 140.15 212.25 140.01C212.123 139.93 211.813 139.787 211.32 139.58C210.49 139.23 210.14 138.82 210.14 138.2C210.14 137.36 210.85 136.71 211.78 136.71C212.48 136.71 212.96 137.02 213.36 137.74L212.67 138.2H212.66Z" fill="#5CBEBC"/>
<path d="M134.63 24.96C134.14 25.07 133.67 25.77 133.63 26.26C133.54 27.48 134.96 28.31 135.97 27.58C137.34 26.58 136.42 24.56 134.63 24.96ZM147.89 24.96C147.4 25.07 146.93 25.77 146.89 26.26C146.77 27.87 149.06 28.47 149.71 27.04C150.3 25.76 149.23 24.66 147.89 24.96ZM124.81 33.74C124.81 32.11 123.49 30.78 121.85 30.78C120.21 30.78 118.89 32.1 118.89 33.74C118.89 35.38 120.21 36.7 121.85 36.7C123.49 36.7 124.81 35.38 124.81 33.74ZM138.08 33.74C138.08 32.11 136.76 30.78 135.12 30.78C133.48 30.78 132.16 32.1 132.16 33.74C132.16 35.38 133.48 36.7 135.12 36.7C136.76 36.7 138.08 35.38 138.08 33.74ZM151.35 33.75C151.35 32.12 150.03 30.79 148.39 30.79C146.75 30.79 145.43 32.11 145.43 33.75C145.43 35.39 146.75 36.71 148.39 36.71C150.03 36.71 151.35 35.39 151.35 33.75ZM164.62 33.75C164.62 32.12 163.3 30.79 161.66 30.79C160.02 30.79 158.7 32.11 158.7 33.75C158.7 35.39 160.02 36.71 161.66 36.71C163.3 36.71 164.62 35.39 164.62 33.75ZM139.55 46.29C139.55 43.43 137.23 41.11 134.37 41.11C131.51 41.11 129.19 43.43 129.19 46.29C129.19 49.15 131.51 51.47 134.37 51.47C137.23 51.47 139.55 49.15 139.55 46.29ZM154.3 46.29C154.3 43.43 151.98 41.11 149.12 41.11C146.26 41.11 143.94 43.43 143.94 46.29C143.94 49.15 146.26 51.47 149.12 51.47C151.98 51.47 154.3 49.15 154.3 46.29ZM124.8 47.02C124.8 45.39 123.48 44.07 121.85 44.07C120.22 44.07 118.9 45.39 118.9 47.02C118.9 48.65 120.22 49.97 121.85 49.97C123.48 49.97 124.8 48.65 124.8 47.02ZM164.61 47.02C164.61 45.39 163.29 44.07 161.66 44.07C160.03 44.07 158.71 45.39 158.71 47.02C158.71 48.65 160.03 49.97 161.66 49.97C163.29 49.97 164.61 48.65 164.61 47.02ZM115.97 47.01C115.97 46.19 115.3 45.52 114.48 45.52C113.66 45.52 112.99 46.19 112.99 47.01C112.99 47.83 113.66 48.5 114.48 48.5C115.3 48.5 115.97 47.83 115.97 47.01ZM168.47 45.63C167.59 45.85 167.29 47.19 167.85 47.91C168.9 49.25 170.87 48.25 170.41 46.46C170.2 45.66 169.18 45.45 168.47 45.63ZM139.56 61.02C139.56 58.16 137.24 55.84 134.38 55.84C131.52 55.84 129.2 58.16 129.2 61.02C129.2 63.88 131.52 66.2 134.38 66.2C137.24 66.2 139.56 63.88 139.56 61.02ZM154.31 61.02C154.31 58.16 151.99 55.84 149.13 55.84C146.27 55.84 143.95 58.16 143.95 61.02C143.95 63.88 146.27 66.2 149.13 66.2C151.99 66.2 154.31 63.88 154.31 61.02ZM124.81 60.3C124.81 58.66 123.48 57.34 121.85 57.34C120.22 57.34 118.89 58.67 118.89 60.3C118.89 61.93 120.22 63.26 121.85 63.26C123.48 63.26 124.81 61.93 124.81 60.3ZM164.62 60.3C164.62 58.66 163.29 57.34 161.66 57.34C160.03 57.34 158.7 58.67 158.7 60.3C158.7 61.93 160.03 63.26 161.66 63.26C163.29 63.26 164.62 61.93 164.62 60.3ZM115.97 60.28C115.97 59.45 115.3 58.79 114.48 58.79C113.66 58.79 112.99 59.46 112.99 60.28C112.99 61.1 113.66 61.77 114.48 61.77C115.3 61.77 115.97 61.1 115.97 60.28ZM168.47 58.89C167.29 59.19 167.23 61.36 168.57 61.72C169.91 62.08 170.79 60.92 170.38 59.66C170.14 58.91 169.14 58.72 168.47 58.89ZM124.81 73.56C124.81 71.93 123.48 70.6 121.85 70.6C120.22 70.6 118.89 71.93 118.89 73.56C118.89 75.19 120.22 76.52 121.85 76.52C123.48 76.52 124.81 75.19 124.81 73.56ZM138.08 73.56C138.08 71.93 136.75 70.6 135.12 70.6C133.49 70.6 132.16 71.93 132.16 73.56C132.16 75.19 133.49 76.52 135.12 76.52C136.75 76.52 138.08 75.19 138.08 73.56ZM151.35 73.56C151.35 71.93 150.02 70.6 148.39 70.6C146.76 70.6 145.43 71.93 145.43 73.56C145.43 75.19 146.76 76.52 148.39 76.52C150.02 76.52 151.35 75.19 151.35 73.56ZM164.62 73.56C164.62 71.93 163.29 70.6 161.66 70.6C160.03 70.6 158.7 71.93 158.7 73.56C158.7 75.19 160.03 76.52 161.66 76.52C163.29 76.52 164.62 75.19 164.62 73.56ZM136.62 80.93C136.62 80.11 135.95 79.44 135.13 79.44C134.31 79.44 133.64 80.11 133.64 80.93C133.64 81.75 134.31 82.42 135.13 82.42C135.95 82.42 136.62 81.75 136.62 80.93ZM149.88 80.93C149.88 80.11 149.21 79.44 148.39 79.44C147.57 79.44 146.9 80.11 146.9 80.93C146.9 81.75 147.57 82.42 148.39 82.42C149.21 82.42 149.88 81.75 149.88 80.93Z" fill="#5DBFBC"/>
<path d="M149.13 66.2C151.991 66.2 154.31 63.8808 154.31 61.02C154.31 58.1592 151.991 55.84 149.13 55.84C146.269 55.84 143.95 58.1592 143.95 61.02C143.95 63.8808 146.269 66.2 149.13 66.2Z" fill="white"/>
<path d="M161.66 63.26C163.295 63.26 164.62 61.9348 164.62 60.3C164.62 58.6652 163.295 57.34 161.66 57.34C160.025 57.34 158.7 58.6652 158.7 60.3C158.7 61.9348 160.025 63.26 161.66 63.26Z" fill="#5DBFBC"/>
<path d="M161.66 76.52C163.295 76.52 164.62 75.1948 164.62 73.56C164.62 71.9252 163.295 70.6 161.66 70.6C160.025 70.6 158.7 71.9252 158.7 73.56C158.7 75.1948 160.025 76.52 161.66 76.52Z" fill="#5DBFBC"/>
<path d="M121.85 76.52C123.485 76.52 124.81 75.1948 124.81 73.56C124.81 71.9252 123.485 70.6 121.85 70.6C120.215 70.6 118.89 71.9252 118.89 73.56C118.89 75.1948 120.215 76.52 121.85 76.52Z" fill="white"/>
<path d="M161.66 36.71C163.295 36.71 164.62 35.3848 164.62 33.75C164.62 32.1152 163.295 30.79 161.66 30.79C160.025 30.79 158.7 32.1152 158.7 33.75C158.7 35.3848 160.025 36.71 161.66 36.71Z" fill="white"/>
<path d="M121.85 36.7C123.485 36.7 124.81 35.3748 124.81 33.74C124.81 32.1052 123.485 30.78 121.85 30.78C120.215 30.78 118.89 32.1052 118.89 33.74C118.89 35.3748 120.215 36.7 121.85 36.7Z" fill="#5DBFBC"/>
<path d="M121.85 49.97C123.479 49.97 124.8 48.6492 124.8 47.02C124.8 45.3908 123.479 44.07 121.85 44.07C120.221 44.07 118.9 45.3908 118.9 47.02C118.9 48.6492 120.221 49.97 121.85 49.97Z" fill="#5DBFBC"/>
<path d="M149.13 51.47C151.991 51.47 154.31 49.1508 154.31 46.29C154.31 43.4292 151.991 41.11 149.13 41.11C146.269 41.11 143.95 43.4292 143.95 46.29C143.95 49.1508 146.269 51.47 149.13 51.47Z" fill="#5DBFBC"/>
<path d="M148.39 36.71C150.025 36.71 151.35 35.3848 151.35 33.75C151.35 32.1152 150.025 30.79 148.39 30.79C146.755 30.79 145.43 32.1152 145.43 33.75C145.43 35.3848 146.755 36.71 148.39 36.71Z" fill="#5DBFBC"/>
<path d="M147.89 24.96C149.24 24.66 150.3 25.76 149.71 27.04C149.05 28.47 146.77 27.87 146.89 26.26C146.93 25.77 147.39 25.07 147.89 24.96Z" fill="#5DBFBC"/>
<path d="M134.38 66.2C137.241 66.2 139.56 63.8808 139.56 61.02C139.56 58.1592 137.241 55.84 134.38 55.84C131.519 55.84 129.2 58.1592 129.2 61.02C129.2 63.8808 131.519 66.2 134.38 66.2Z" fill="#5DBFBC"/>
<path d="M121.85 63.26C123.485 63.26 124.81 61.9348 124.81 60.3C124.81 58.6652 123.485 57.34 121.85 57.34C120.215 57.34 118.89 58.6652 118.89 60.3C118.89 61.9348 120.215 63.26 121.85 63.26Z" fill="#5DBFBC"/>
<path d="M114.48 61.77C115.303 61.77 115.97 61.1029 115.97 60.28C115.97 59.4571 115.303 58.79 114.48 58.79C113.657 58.79 112.99 59.4571 112.99 60.28C112.99 61.1029 113.657 61.77 114.48 61.77Z" fill="#5DBFBC"/>
<path d="M135.12 36.7C136.755 36.7 138.08 35.3748 138.08 33.74C138.08 32.1052 136.755 30.78 135.12 30.78C133.485 30.78 132.16 32.1052 132.16 33.74C132.16 35.3748 133.485 36.7 135.12 36.7Z" fill="#5DBFBC"/>
<path d="M134.63 24.96C136.42 24.56 137.34 26.58 135.97 27.58C134.96 28.32 133.54 27.48 133.63 26.26C133.67 25.77 134.13 25.07 134.63 24.96Z" fill="#5DBFBC"/>
<path d="M168.47 58.89C169.15 58.72 170.14 58.91 170.38 59.66C170.79 60.92 169.9 62.08 168.57 61.72C167.24 61.36 167.28 59.19 168.47 58.89Z" fill="#5DBFBC"/>
<path d="M135.12 76.52C136.755 76.52 138.08 75.1948 138.08 73.56C138.08 71.9252 136.755 70.6 135.12 70.6C133.485 70.6 132.16 71.9252 132.16 73.56C132.16 75.1948 133.485 76.52 135.12 76.52Z" fill="#5DBFBC"/>
<path d="M135.12 82.42C135.943 82.42 136.61 81.7529 136.61 80.93C136.61 80.1071 135.943 79.44 135.12 79.44C134.297 79.44 133.63 80.1071 133.63 80.93C133.63 81.7529 134.297 82.42 135.12 82.42Z" fill="#5DBFBC"/>
<path d="M161.66 49.97C163.289 49.97 164.61 48.6492 164.61 47.02C164.61 45.3908 163.289 44.07 161.66 44.07C160.031 44.07 158.71 45.3908 158.71 47.02C158.71 48.6492 160.031 49.97 161.66 49.97Z" fill="#5DBFBC"/>
<path d="M168.47 45.63C169.17 45.45 170.2 45.66 170.41 46.46C170.88 48.25 168.9 49.25 167.85 47.91C167.29 47.19 167.59 45.86 168.47 45.63Z" fill="#5DBFBC"/>
<path d="M148.39 76.52C150.025 76.52 151.35 75.1948 151.35 73.56C151.35 71.9252 150.025 70.6 148.39 70.6C146.755 70.6 145.43 71.9252 145.43 73.56C145.43 75.1948 146.755 76.52 148.39 76.52Z" fill="#5DBFBC"/>
<path d="M148.39 82.42C149.213 82.42 149.88 81.7529 149.88 80.93C149.88 80.1071 149.213 79.44 148.39 79.44C147.567 79.44 146.9 80.1071 146.9 80.93C146.9 81.7529 147.567 82.42 148.39 82.42Z" fill="#5DBFBC"/>
<path d="M134.38 51.47C137.241 51.47 139.56 49.1508 139.56 46.29C139.56 43.4292 137.241 41.11 134.38 41.11C131.519 41.11 129.2 43.4292 129.2 46.29C129.2 49.1508 131.519 51.47 134.38 51.47Z" fill="white"/>
<path d="M114.48 48.5C115.303 48.5 115.97 47.8329 115.97 47.01C115.97 46.1871 115.303 45.52 114.48 45.52C113.657 45.52 112.99 46.1871 112.99 47.01C112.99 47.8329 113.657 48.5 114.48 48.5Z" fill="#5DBFBC"/>
</svg>
