<svg width="369" height="114" viewBox="0 0 369 114" fill="none" xmlns="http://www.w3.org/2000/svg">
<path d="M152.36 56.12V74H145.16V56.3C145.16 52.04 142.04 50.12 138.56 50.12C135.08 50.12 131.96 52.04 131.96 56.3V74H124.76V56.12C124.76 50.9 128.66 43.46 138.56 43.46C148.46 43.46 152.36 50.9 152.36 56.12Z" fill="white"/>
<path d="M177.38 64.7H185.24C183.26 70.76 177.92 74.54 170.66 74.54C161.36 74.54 155.12 68.3 155.12 59C155.12 49.7 161.36 43.58 170.66 43.58C179.96 43.58 186.14 49.76 186.14 59C186.14 59.84 186.08 60.62 186.02 61.4H162.56C163.34 65.54 166.34 67.94 170.6 67.94C173.6 67.94 175.94 66.8 177.38 64.7ZM178.16 54.8C176.9 51.86 174.2 50.18 170.6 50.18C167 50.18 164.36 51.86 163.1 54.8H178.16Z" fill="white"/>
<path d="M188.9 61.88V44H196.1V61.7C196.1 65.9 199.22 67.88 202.7 67.88C206.18 67.88 209.3 65.9 209.3 61.7V44H216.5V61.88C216.5 67.1 212.6 74.54 202.7 74.54C192.8 74.54 188.9 67.1 188.9 61.88Z" fill="white"/>
<path d="M234.08 43.46V50.06C229.28 50.06 226.4 52.4 226.4 57.2V74H219.2V57.2C219.2 48.08 224.96 43.46 234.08 43.46Z" fill="white"/>
<path d="M265.46 59.12V74H258.26V71.12C256.82 72.98 253.76 74.54 249.38 74.54C240.68 74.54 234.44 68.3 234.44 59C234.44 49.7 240.68 43.58 249.92 43.58C259.16 43.58 265.46 49.82 265.46 59.12ZM249.98 50.18C244.94 50.18 241.64 53.48 241.64 59.06C241.64 64.64 244.94 67.94 249.98 67.94C255.02 67.94 258.26 64.64 258.26 59.06C258.26 53.48 254.96 50.18 249.98 50.18Z" fill="white"/>
<path d="M269.06 32H276.26V74H269.06V32Z" fill="white"/>
<path d="M283.46 31.34C285.68 31.34 287.42 33.14 287.42 35.3C287.42 37.58 285.68 39.32 283.46 39.32C281.24 39.32 279.5 37.58 279.5 35.3C279.5 33.14 281.24 31.34 283.46 31.34ZM279.86 44H287.06V74H279.86V44Z" fill="white"/>
<path d="M313.76 64.94C313.76 71.06 308.9 74.36 302.06 74.36C295.7 74.36 291.62 71.48 289.76 69.8L293.6 64.16C296.12 66.56 299.3 67.76 302.24 67.76C304.7 67.76 306.56 66.92 306.56 65.18C306.56 60.02 290.24 63.2 290.24 52.22C290.24 46.7 294.38 43.52 301.16 43.52C307.1 43.52 311 45.92 313.64 48.08L309.8 53.66C306.62 51.02 303.5 50.12 301.04 50.12C298.58 50.12 297.44 50.9 297.44 52.1C297.44 56.48 313.76 53.72 313.76 64.94Z" fill="white"/>
<path d="M125.62 85.97L124.99 87.39H124.05L126.69 81.61L129.26 87.39H128.32L127.69 85.97H125.61H125.62ZM126.67 83.46L125.92 85.19H127.4L126.66 83.46H126.67Z" fill="#5CBEBC"/>
<path d="M131.24 87.38H130.38V82.07H131.24V87.38Z" fill="#5CBEBC"/>
<path d="M136.96 85.97L136.33 87.39H135.39L138.03 81.61L140.6 87.39H139.66L139.03 85.97H136.95H136.96ZM138.01 83.46L137.26 85.19H138.74L138 83.46H138.01Z" fill="#5CBEBC"/>
<path d="M141.73 81.62L145.85 85.83V82.06H146.69V87.82L142.57 83.62V87.37H141.73V81.61V81.62Z" fill="#5CBEBC"/>
<path d="M148.77 82.07H150.02C150.9 82.07 151.5 82.25 152.04 82.69C152.66 83.18 152.99 83.9 152.99 84.72C152.99 85.54 152.65 86.26 152.01 86.77C151.47 87.2 150.89 87.38 150.02 87.38H148.77V82.07ZM150.05 86.6C150.67 86.6 151.09 86.47 151.46 86.17C151.88 85.82 152.12 85.31 152.12 84.73C152.12 83.58 151.31 82.85 150.04 82.85H149.62V86.6H150.04H150.05Z" fill="#5CBEBC"/>
<path d="M157.58 82.07H158.83C159.71 82.07 160.31 82.25 160.85 82.69C161.47 83.18 161.8 83.9 161.8 84.72C161.8 85.54 161.46 86.26 160.82 86.77C160.28 87.2 159.7 87.38 158.83 87.38H157.58V82.07ZM158.86 86.6C159.48 86.6 159.9 86.47 160.27 86.17C160.69 85.82 160.93 85.31 160.93 84.73C160.93 83.58 160.12 82.85 158.85 82.85H158.43V86.6H158.85H158.86Z" fill="#5CBEBC"/>
<path d="M164.23 82.85V84.1H166.39V84.88H164.23V86.61H166.45V87.39H163.37V82.08H166.45V82.86H164.23V82.85Z" fill="#5CBEBC"/>
<path d="M169.63 85.67L171.04 82.07H171.97L169.62 87.95L167.28 82.07H168.22L169.63 85.67Z" fill="#5CBEBC"/>
<path d="M176.97 82.85V84.1H178.82V84.88H176.97V87.39H176.11V82.08H178.86V82.86H176.97V82.85Z" fill="#5CBEBC"/>
<path d="M185.59 84.73C185.59 86.28 184.3 87.52 182.71 87.52C181.12 87.52 179.87 86.26 179.87 84.69C179.87 83.12 181.19 81.92 182.73 81.92C184.27 81.92 185.59 83.19 185.59 84.73ZM180.74 84.7C180.74 85.84 181.62 86.75 182.72 86.75C183.82 86.75 184.72 85.85 184.72 84.74C184.72 83.63 183.83 82.71 182.73 82.71C181.63 82.71 180.74 83.61 180.74 84.7Z" fill="#5CBEBC"/>
<path d="M190.83 87.38H189.78L188.26 85.17H188.02V87.38H187.16V82.07H188.36C189 82.07 189.39 82.15 189.71 82.37C190.12 82.63 190.36 83.11 190.36 83.64C190.36 84.37 189.93 84.92 189.2 85.09L190.83 87.38ZM188.46 84.43C189.14 84.43 189.5 84.15 189.5 83.63C189.5 83.11 189.16 82.85 188.45 82.85H188.02V84.43H188.47H188.46Z" fill="#5CBEBC"/>
<path d="M194.29 82.07H195.29L196.57 84.2L197.87 82.07H198.87L197 85.12V87.39H196.13V85.12L194.28 82.07H194.29Z" fill="#5CBEBC"/>
<path d="M204.92 84.73C204.92 86.28 203.63 87.52 202.04 87.52C200.45 87.52 199.2 86.26 199.2 84.69C199.2 83.12 200.52 81.92 202.06 81.92C203.6 81.92 204.92 83.19 204.92 84.73ZM200.07 84.7C200.07 85.84 200.95 86.75 202.05 86.75C203.15 86.75 204.05 85.85 204.05 84.74C204.05 83.63 203.16 82.71 202.06 82.71C200.96 82.71 200.07 83.61 200.07 84.7Z" fill="#5CBEBC"/>
<path d="M207.34 85.29C207.34 85.82 207.38 86.03 207.5 86.24C207.68 86.53 208.12 86.74 208.53 86.74C208.94 86.74 209.36 86.52 209.54 86.24C209.66 86.04 209.7 85.82 209.7 85.29V82.06H210.56V85.43C210.56 86.02 210.45 86.4 210.19 86.75C209.82 87.23 209.19 87.52 208.54 87.52C207.89 87.52 207.25 87.23 206.87 86.75C206.6 86.4 206.5 86.02 206.5 85.43V82.06H207.36V85.29H207.34Z" fill="#5CBEBC"/>
<path d="M216.31 87.38H215.26L213.74 85.17H213.5V87.38H212.64V82.07H213.83C214.47 82.07 214.86 82.15 215.18 82.37C215.59 82.63 215.83 83.11 215.83 83.64C215.83 84.37 215.4 84.92 214.67 85.09L216.3 87.38H216.31ZM213.94 84.43C214.62 84.43 214.98 84.15 214.98 83.63C214.98 83.11 214.64 82.85 213.93 82.85H213.5V84.43H213.95H213.94Z" fill="#5CBEBC"/>
<path d="M221.59 87.38H220.73V82.07H222.03C222.71 82.07 223.12 82.18 223.45 82.47C223.79 82.75 223.99 83.18 223.99 83.63C223.99 84.59 223.28 85.19 222.16 85.19H221.58V87.39L221.59 87.38ZM222.15 84.42C222.8 84.42 223.15 84.14 223.15 83.63C223.15 83.12 222.81 82.85 222.1 82.85H221.59V84.42H222.15Z" fill="#5CBEBC"/>
<path d="M228.96 87.38H227.91L226.39 85.17H226.15V87.38H225.29V82.07H226.49C227.13 82.07 227.52 82.15 227.84 82.37C228.25 82.63 228.49 83.11 228.49 83.64C228.49 84.37 228.06 84.92 227.33 85.09L228.96 87.38ZM226.6 84.43C227.28 84.43 227.64 84.15 227.64 83.63C227.64 83.11 227.3 82.85 226.59 82.85H226.16V84.43H226.61H226.6Z" fill="#5CBEBC"/>
<path d="M235.43 84.73C235.43 86.28 234.14 87.52 232.55 87.52C230.96 87.52 229.71 86.26 229.71 84.69C229.71 83.12 231.03 81.92 232.57 81.92C234.11 81.92 235.43 83.19 235.43 84.73ZM230.58 84.7C230.58 85.84 231.46 86.75 232.56 86.75C233.66 86.75 234.56 85.85 234.56 84.74C234.56 83.63 233.67 82.71 232.57 82.71C231.47 82.71 230.58 83.61 230.58 84.7Z" fill="#5CBEBC"/>
<path d="M241.06 83.66C240.41 82.96 239.93 82.7 239.3 82.7C238.23 82.7 237.33 83.62 237.33 84.74C237.33 85.86 238.22 86.74 239.31 86.74C239.91 86.74 240.4 86.48 241.06 85.79V86.91C240.46 87.34 239.94 87.52 239.31 87.52C237.75 87.52 236.46 86.26 236.46 84.74C236.46 83.22 237.75 81.92 239.34 81.92C239.96 81.92 240.46 82.11 241.05 82.54V83.66H241.06Z" fill="#5CBEBC"/>
<path d="M243.57 82.85V84.1H245.73V84.88H243.57V86.61H245.79V87.39H242.71V82.08H245.79V82.86H243.57V82.85Z" fill="#5CBEBC"/>
<path d="M249.81 83.41L249.77 83.34C249.47 82.82 249.3 82.7 248.9 82.7C248.47 82.7 248.14 83.01 248.14 83.42C248.14 83.6 248.22 83.73 248.41 83.85C248.53 83.9233 248.833 84.06 249.32 84.26C250.25 84.64 250.64 85.09 250.64 85.78C250.64 86.75 249.83 87.52 248.81 87.52C247.86 87.52 247.23 86.97 247 85.91L247.83 85.68C247.95 86.41 248.26 86.74 248.84 86.74C249.36 86.74 249.77 86.33 249.77 85.83C249.77 85.55 249.66 85.36 249.4 85.22C249.273 85.14 248.963 84.9967 248.47 84.79C247.64 84.44 247.29 84.03 247.29 83.41C247.29 82.57 248 81.92 248.93 81.92C249.63 81.92 250.11 82.23 250.51 82.95L249.82 83.41H249.81Z" fill="#5CBEBC"/>
<path d="M254.66 83.41L254.62 83.34C254.32 82.82 254.15 82.7 253.75 82.7C253.32 82.7 252.99 83.01 252.99 83.42C252.99 83.6 253.07 83.73 253.26 83.85C253.38 83.9233 253.683 84.06 254.17 84.26C255.1 84.64 255.49 85.09 255.49 85.78C255.49 86.75 254.68 87.52 253.66 87.52C252.71 87.52 252.08 86.97 251.85 85.91L252.68 85.68C252.8 86.41 253.11 86.74 253.69 86.74C254.21 86.74 254.62 86.33 254.62 85.83C254.62 85.55 254.51 85.36 254.25 85.22C254.123 85.14 253.813 84.9967 253.32 84.79C252.49 84.44 252.14 84.03 252.14 83.41C252.14 82.57 252.85 81.92 253.78 81.92C254.48 81.92 254.96 82.23 255.36 82.95L254.67 83.41H254.66Z" fill="#5CBEBC"/>
<path d="M257.99 82.85V84.1H260.15V84.88H257.99V86.61H260.21V87.39H257.13V82.08H260.21V82.86H257.99V82.85Z" fill="#5CBEBC"/>
<path d="M264.22 83.41L264.18 83.34C263.88 82.82 263.71 82.7 263.31 82.7C262.88 82.7 262.55 83.01 262.55 83.42C262.55 83.6 262.63 83.73 262.82 83.85C262.94 83.9233 263.243 84.06 263.73 84.26C264.66 84.64 265.05 85.09 265.05 85.78C265.05 86.75 264.24 87.52 263.22 87.52C262.27 87.52 261.64 86.97 261.41 85.91L262.24 85.68C262.36 86.41 262.67 86.74 263.25 86.74C263.77 86.74 264.18 86.33 264.18 85.83C264.18 85.55 264.07 85.36 263.81 85.22C263.683 85.14 263.373 84.9967 262.88 84.79C262.05 84.44 261.7 84.03 261.7 83.41C261.7 82.57 262.41 81.92 263.34 81.92C264.04 81.92 264.52 82.23 264.92 82.95L264.23 83.41H264.22Z" fill="#5CBEBC"/>
<path d="M75.49 30.45C75 30.56 74.53 31.26 74.49 31.75C74.4 32.97 75.82 33.8 76.83 33.07C78.2 32.07 77.28 30.05 75.49 30.45ZM88.76 30.45C88.27 30.56 87.8 31.26 87.76 31.75C87.64 33.36 89.93 33.96 90.58 32.53C91.17 31.25 90.1 30.15 88.76 30.45ZM65.68 39.23C65.68 37.6 64.36 36.27 62.72 36.27C61.08 36.27 59.76 37.59 59.76 39.23C59.76 40.87 61.08 42.19 62.72 42.19C64.36 42.19 65.68 40.87 65.68 39.23ZM78.94 39.23C78.94 37.6 77.62 36.27 75.98 36.27C74.34 36.27 73.02 37.59 73.02 39.23C73.02 40.87 74.34 42.19 75.98 42.19C77.62 42.19 78.94 40.87 78.94 39.23ZM92.22 39.23C92.22 37.6 90.9 36.27 89.26 36.27C87.62 36.27 86.3 37.59 86.3 39.23C86.3 40.87 87.62 42.19 89.26 42.19C90.9 42.19 92.22 40.87 92.22 39.23ZM105.49 39.23C105.49 37.6 104.17 36.27 102.53 36.27C100.89 36.27 99.57 37.59 99.57 39.23C99.57 40.87 100.89 42.19 102.53 42.19C104.17 42.19 105.49 40.87 105.49 39.23ZM80.42 51.78C80.42 48.92 78.1 46.6 75.24 46.6C72.38 46.6 70.06 48.92 70.06 51.78C70.06 54.64 72.38 56.96 75.24 56.96C78.1 56.96 80.42 54.64 80.42 51.78ZM95.17 51.78C95.17 48.92 92.85 46.6 89.99 46.6C87.13 46.6 84.81 48.92 84.81 51.78C84.81 54.64 87.13 56.96 89.99 56.96C92.85 56.96 95.17 54.64 95.17 51.78ZM65.67 52.5C65.67 50.87 64.35 49.55 62.72 49.55C61.09 49.55 59.77 50.87 59.77 52.5C59.77 54.13 61.09 55.45 62.72 55.45C64.35 55.45 65.67 54.13 65.67 52.5ZM105.48 52.5C105.48 50.87 104.16 49.55 102.53 49.55C100.9 49.55 99.58 50.87 99.58 52.5C99.58 54.13 100.9 55.45 102.53 55.45C104.16 55.45 105.48 54.13 105.48 52.5ZM56.83 52.5C56.83 51.68 56.16 51.01 55.34 51.01C54.52 51.01 53.85 51.68 53.85 52.5C53.85 53.32 54.52 53.99 55.34 53.99C56.16 53.99 56.83 53.32 56.83 52.5ZM109.34 51.11C108.46 51.33 108.16 52.67 108.72 53.39C109.77 54.73 111.74 53.73 111.28 51.94C111.07 51.14 110.05 50.93 109.34 51.11ZM80.43 66.5C80.43 63.64 78.11 61.32 75.25 61.32C72.39 61.32 70.07 63.64 70.07 66.5C70.07 69.36 72.39 71.68 75.25 71.68C78.11 71.68 80.43 69.36 80.43 66.5ZM95.17 66.5C95.17 63.64 92.85 61.32 89.99 61.32C87.13 61.32 84.81 63.64 84.81 66.5C84.81 69.36 87.13 71.68 89.99 71.68C92.85 71.68 95.17 69.36 95.17 66.5ZM65.68 65.78C65.68 64.14 64.35 62.82 62.72 62.82C61.09 62.82 59.76 64.15 59.76 65.78C59.76 67.41 61.09 68.74 62.72 68.74C64.35 68.74 65.68 67.41 65.68 65.78ZM105.49 65.78C105.49 64.14 104.16 62.82 102.53 62.82C100.9 62.82 99.57 64.15 99.57 65.78C99.57 67.41 100.9 68.74 102.53 68.74C104.16 68.74 105.49 67.41 105.49 65.78ZM56.84 65.76C56.84 64.93 56.17 64.27 55.35 64.27C54.53 64.27 53.86 64.94 53.86 65.76C53.86 66.58 54.53 67.25 55.35 67.25C56.17 67.25 56.84 66.58 56.84 65.76ZM109.34 64.37C108.16 64.67 108.1 66.84 109.44 67.2C110.78 67.56 111.66 66.4 111.25 65.14C111.01 64.39 110.01 64.2 109.34 64.37ZM65.68 79.05C65.68 77.42 64.35 76.09 62.72 76.09C61.09 76.09 59.76 77.42 59.76 79.05C59.76 80.68 61.09 82.01 62.72 82.01C64.35 82.01 65.68 80.68 65.68 79.05ZM78.95 79.05C78.95 77.42 77.62 76.09 75.99 76.09C74.36 76.09 73.03 77.42 73.03 79.05C73.03 80.68 74.36 82.01 75.99 82.01C77.62 82.01 78.95 80.68 78.95 79.05ZM92.21 79.05C92.21 77.42 90.88 76.09 89.25 76.09C87.62 76.09 86.29 77.42 86.29 79.05C86.29 80.68 87.62 82.01 89.25 82.01C90.88 82.01 92.21 80.68 92.21 79.05ZM105.48 79.04C105.48 77.41 104.15 76.08 102.52 76.08C100.89 76.08 99.56 77.41 99.56 79.04C99.56 80.67 100.89 82 102.52 82C104.15 82 105.48 80.67 105.48 79.04ZM77.48 86.41C77.48 85.59 76.81 84.92 75.99 84.92C75.17 84.92 74.5 85.59 74.5 86.41C74.5 87.23 75.17 87.9 75.99 87.9C76.81 87.9 77.48 87.23 77.48 86.41ZM90.75 86.41C90.75 85.59 90.08 84.92 89.26 84.92C88.44 84.92 87.77 85.59 87.77 86.41C87.77 87.23 88.44 87.9 89.26 87.9C90.08 87.9 90.75 87.23 90.75 86.41Z" fill="#5DBFBC"/>
<path d="M89.99 71.68C92.8508 71.68 95.17 69.3608 95.17 66.5C95.17 63.6392 92.8508 61.32 89.99 61.32C87.1292 61.32 84.81 63.6392 84.81 66.5C84.81 69.3608 87.1292 71.68 89.99 71.68Z" fill="white"/>
<path d="M102.53 68.74C104.165 68.74 105.49 67.4148 105.49 65.78C105.49 64.1452 104.165 62.82 102.53 62.82C100.895 62.82 99.57 64.1452 99.57 65.78C99.57 67.4148 100.895 68.74 102.53 68.74Z" fill="#5DBFBC"/>
<path d="M102.52 82C104.155 82 105.48 80.6748 105.48 79.04C105.48 77.4052 104.155 76.08 102.52 76.08C100.885 76.08 99.56 77.4052 99.56 79.04C99.56 80.6748 100.885 82 102.52 82Z" fill="#5DBFBC"/>
<path d="M62.72 82.01C64.3548 82.01 65.68 80.6848 65.68 79.05C65.68 77.4152 64.3548 76.09 62.72 76.09C61.0852 76.09 59.76 77.4152 59.76 79.05C59.76 80.6848 61.0852 82.01 62.72 82.01Z" fill="white"/>
<path d="M102.53 42.19C104.165 42.19 105.49 40.8648 105.49 39.23C105.49 37.5952 104.165 36.27 102.53 36.27C100.895 36.27 99.57 37.5952 99.57 39.23C99.57 40.8648 100.895 42.19 102.53 42.19Z" fill="white"/>
<path d="M62.72 42.19C64.3548 42.19 65.68 40.8648 65.68 39.23C65.68 37.5952 64.3548 36.27 62.72 36.27C61.0852 36.27 59.76 37.5952 59.76 39.23C59.76 40.8648 61.0852 42.19 62.72 42.19Z" fill="#5DBFBC"/>
<path d="M62.72 55.45C64.3492 55.45 65.67 54.1292 65.67 52.5C65.67 50.8708 64.3492 49.55 62.72 49.55C61.0908 49.55 59.77 50.8708 59.77 52.5C59.77 54.1292 61.0908 55.45 62.72 55.45Z" fill="#5DBFBC"/>
<path d="M89.99 56.96C92.8508 56.96 95.17 54.6408 95.17 51.78C95.17 48.9192 92.8508 46.6 89.99 46.6C87.1292 46.6 84.81 48.9192 84.81 51.78C84.81 54.6408 87.1292 56.96 89.99 56.96Z" fill="#5DBFBC"/>
<path d="M89.26 42.19C90.8948 42.19 92.22 40.8648 92.22 39.23C92.22 37.5952 90.8948 36.27 89.26 36.27C87.6252 36.27 86.3 37.5952 86.3 39.23C86.3 40.8648 87.6252 42.19 89.26 42.19Z" fill="#5DBFBC"/>
<path d="M88.76 30.45C90.11 30.15 91.17 31.25 90.58 32.53C89.92 33.96 87.64 33.36 87.76 31.75C87.8 31.26 88.26 30.56 88.76 30.45Z" fill="#5DBFBC"/>
<path d="M75.25 71.68C78.1108 71.68 80.43 69.3608 80.43 66.5C80.43 63.6392 78.1108 61.32 75.25 61.32C72.3892 61.32 70.07 63.6392 70.07 66.5C70.07 69.3608 72.3892 71.68 75.25 71.68Z" fill="#5DBFBC"/>
<path d="M62.72 68.74C64.3548 68.74 65.68 67.4148 65.68 65.78C65.68 64.1452 64.3548 62.82 62.72 62.82C61.0852 62.82 59.76 64.1452 59.76 65.78C59.76 67.4148 61.0852 68.74 62.72 68.74Z" fill="#5DBFBC"/>
<path d="M55.34 67.25C56.1629 67.25 56.83 66.5829 56.83 65.76C56.83 64.9371 56.1629 64.27 55.34 64.27C54.5171 64.27 53.85 64.9371 53.85 65.76C53.85 66.5829 54.5171 67.25 55.34 67.25Z" fill="#5DBFBC"/>
<path d="M75.99 42.19C77.6248 42.19 78.95 40.8648 78.95 39.23C78.95 37.5952 77.6248 36.27 75.99 36.27C74.3552 36.27 73.03 37.5952 73.03 39.23C73.03 40.8648 74.3552 42.19 75.99 42.19Z" fill="#5DBFBC"/>
<path d="M75.49 30.45C77.28 30.05 78.2 32.07 76.83 33.07C75.82 33.81 74.4 32.97 74.49 31.75C74.53 31.26 74.99 30.56 75.49 30.45Z" fill="#5DBFBC"/>
<path d="M109.34 64.37C110.02 64.2 111.01 64.39 111.25 65.14C111.66 66.4 110.77 67.56 109.44 67.2C108.11 66.84 108.15 64.67 109.34 64.37Z" fill="#5DBFBC"/>
<path d="M75.99 82.01C77.6248 82.01 78.95 80.6848 78.95 79.05C78.95 77.4152 77.6248 76.09 75.99 76.09C74.3552 76.09 73.03 77.4152 73.03 79.05C73.03 80.6848 74.3552 82.01 75.99 82.01Z" fill="#5DBFBC"/>
<path d="M75.99 87.9C76.8129 87.9 77.48 87.2329 77.48 86.41C77.48 85.5871 76.8129 84.92 75.99 84.92C75.1671 84.92 74.5 85.5871 74.5 86.41C74.5 87.2329 75.1671 87.9 75.99 87.9Z" fill="#5DBFBC"/>
<path d="M102.52 55.45C104.149 55.45 105.47 54.1292 105.47 52.5C105.47 50.8708 104.149 49.55 102.52 49.55C100.891 49.55 99.57 50.8708 99.57 52.5C99.57 54.1292 100.891 55.45 102.52 55.45Z" fill="#5DBFBC"/>
<path d="M109.34 51.11C110.04 50.93 111.07 51.14 111.28 51.94C111.75 53.73 109.77 54.73 108.72 53.39C108.16 52.67 108.46 51.34 109.34 51.11Z" fill="#5DBFBC"/>
<path d="M89.25 82.01C90.8848 82.01 92.21 80.6848 92.21 79.05C92.21 77.4152 90.8848 76.09 89.25 76.09C87.6152 76.09 86.29 77.4152 86.29 79.05C86.29 80.6848 87.6152 82.01 89.25 82.01Z" fill="#5DBFBC"/>
<path d="M89.26 87.9C90.0829 87.9 90.75 87.2329 90.75 86.41C90.75 85.5871 90.0829 84.92 89.26 84.92C88.4371 84.92 87.77 85.5871 87.77 86.41C87.77 87.2329 88.4371 87.9 89.26 87.9Z" fill="#5DBFBC"/>
<path d="M75.24 56.96C78.1008 56.96 80.42 54.6408 80.42 51.78C80.42 48.9192 78.1008 46.6 75.24 46.6C72.3792 46.6 70.06 48.9192 70.06 51.78C70.06 54.6408 72.3792 56.96 75.24 56.96Z" fill="white"/>
<path d="M55.34 53.99C56.1629 53.99 56.83 53.3229 56.83 52.5C56.83 51.6771 56.1629 51.01 55.34 51.01C54.5171 51.01 53.85 51.6771 53.85 52.5C53.85 53.3229 54.5171 53.99 55.34 53.99Z" fill="#5DBFBC"/>
</svg>
